<svg width="512" height="512" viewBox="0 0 512 512" fill="none" xmlns="http://www.w3.org/2000/svg">
<g clip-path="url(#clip0_9_125)">
<path d="M512 256C512 397.385 397.385 512 256 512C114.615 512 0 397.385 0 256C0 114.615 114.615 0 256 0C397.385 0 512 114.615 512 256Z" fill="#6610F2"/>
<path d="M196.658 626.975L189.788 719.946L201.31 721.525L219.703 630.133L196.658 626.975Z" fill="white"/>
<path d="M197.45 621.212L219.319 418.776L253.887 423.513L220.495 624.37L197.45 621.212Z" fill="white"/>
<path d="M254.675 417.752L220.107 413.015L223.584 301.971L312.927 249.648L289.646 205.372L234.636 221.312L233.057 232.835L244.58 234.413L254.524 247.515L232.503 279.715L193.752 262.666L198.254 186.979L302.512 154.309L359.017 255.964L266.517 331.332L254.675 417.752Z" fill="white"/>
<path fill-rule="evenodd" clip-rule="evenodd" d="M256 484.124C381.989 484.124 484.124 381.989 484.124 256C484.124 130.011 381.989 27.8762 256 27.8762C130.011 27.8762 27.8762 130.011 27.8762 256C27.8762 381.989 130.011 484.124 256 484.124ZM256 512C397.385 512 512 397.385 512 256C512 114.615 397.385 0 256 0C114.615 0 0 114.615 0 256C0 397.385 114.615 512 256 512Z" fill="white"/>
</g>
<defs>
<clipPath id="clip0_9_125">
<rect width="512" height="512" rx="56" fill="white"/>
</clipPath>
</defs>
</svg>
